<svg xmlns="http://www.w3.org/2000/svg" aria-hidden="true" style="width:0;height:0;position:absolute;overflow:hidden"><defs><symbol id="icon-close" viewBox="0 0 32 32"><path d="M23.734 10.304 22.23 8.8l-5.963 5.962L10.305 8.8l-1.504 1.504 5.962 5.962-5.962 5.963 1.504 1.504 5.962-5.963 5.963 5.963 1.504-1.504-5.963-5.963 5.963-5.962z"/></symbol><symbol id="icon-Logo" viewBox="0 0 38 32"><path d="m21.774 9.64-.717-.571a.528.528 0 0 0-.765.079l-.001.001-9.915 11.897.153.177 2.455-2.366a.381.381 0 0 1-.19-.177l-.001-.002a.41.41 0 0 1-.037-.268v.003a.401.401 0 0 1 .134-.229.363.363 0 0 1 .237-.087h.006c.08 0 .157.027.221.076s.11.117.134.196l.001.003 3.238-3.137a.273.273 0 0 1 .351 0l.164.126a.264.264 0 0 0 .365-.046v-.001l4.233-4.96a.49.49 0 0 0 .063-.567l.001.003a.473.473 0 0 0-.129-.148l-.001-.001z"/><path d="M26.433 12.989a21.493 21.493 0 0 1-7.022 3.477l-.153.037c-2.298.638-4.968 1.071-7.716 1.208l-.088.003c.053.406.149.805.285 1.189 1.487 1.406 12.687-.994 14.875-3.771.465-.577-.181-2.143-.181-2.143zm-13.3 5.868a.36.36 0 0 1-.207-.066l.001.001a.39.39 0 0 1-.136-.172l-.001-.003a.404.404 0 0 1 .08-.423.36.36 0 0 1 .408-.083l-.002-.001a.395.395 0 0 1 .229.358v.004a.396.396 0 0 1-.108.272.366.366 0 0 1-.263.112h-.001zM2.551 12.166l.088-.394 1.422.337c.117.226.19.475.213.731a2.54 2.54 0 0 1-.049.811c-.074.384-.24.72-.473.998l.003-.003c-.219.26-.504.457-.829.568l-.013.004a1.93 1.93 0 0 1-1.047.038l.013.003a1.896 1.896 0 0 1-.913-.503 1.904 1.904 0 0 1-.517-.884l-.003-.013a2.271 2.271 0 0 1 .003-1.158l-.004.016c.059-.28.165-.547.312-.789.14-.22.327-.402.547-.531l.197.314c-.189.121-.35.282-.474.473a1.66 1.66 0 0 0-.246.625l-.001.01a1.87 1.87 0 0 0 .019.91l-.003-.013c.074.278.219.529.421.726.207.21.467.354.749.417.274.08.563.08.837 0 .262-.09.497-.25.683-.463.191-.23.323-.507.383-.806a1.825 1.825 0 0 0-.07-1.104l.004.012-1.253-.331zm3.096-3.595-1.274 1.777.547 1.023-.251.354-2.023-3.857.235-.337 4.118.926-.257.354-1.094-.24zm-.361-.091-2.187-.514 1.094 2.051L5.287 8.48zm0-3.594.328-.257 2.083 2.914L9.415 6.2l.207.291-2.04 1.594-2.297-3.2zm3.445-2.383.366-.171 1.444 3.303 1.953-.926.142.331-2.318 1.103-1.586-3.64zm7.208 1.314.082.36-2.635.646-.875-3.897 2.56-.623.076.354-2.187.531.312 1.383 1.925-.474.082.354-1.93.469.328 1.446 2.264-.549zm3.757.143-.914-1.257a2.603 2.603 0 0 1-.306 0l-1.029.034.038 1.269h-.405l-.126-4L18.409 0a1.67 1.67 0 0 1 1.159.326 1.284 1.284 0 0 1 .448.994l.002.079c0 .267-.076.516-.208.726l.003-.006a1.287 1.287 0 0 1-.625.483l-.009.003.957 1.337-.443.017zm-.383-1.88a.945.945 0 0 0 .279-.749v-.02a.957.957 0 0 0-.083-.39l.002.006a.931.931 0 0 0-.241-.326L19.269.6a1.28 1.28 0 0 0-.863-.234h.005l-1.04.04.066 2 1.017-.034.046.001c.31 0 .594-.11.815-.294l-.002.002zm3.276.817-.197 1.366-.399-.063.202-1.343L21.064 0l.426.069.967 2.434 1.64-2.017.383.086-1.891 2.326zm5.408-.24.476.646-.208.171-.475-.663-.301.749-.23-.103.306-.749-.787.109v-.274l.777-.091-.482-.646.213-.171.421.651.295-.754.235.103-.279.766.788-.114v.28l-.75.091zm1.827 4.606a1.6 1.6 0 0 1-.234-.684l-.001-.007.322-.149c.025.226.095.445.208.64.122.219.281.413.47.571.194.195.443.321.711.36.097.009.194-.006.283-.045s.169-.1.231-.178a.534.534 0 0 0 .127-.347l-.002-.044v.002a1.1 1.1 0 0 0-.134-.4l.003.005a6.105 6.105 0 0 0-.334-.509 5.053 5.053 0 0 1-.38-.601l-.014-.028a1.158 1.158 0 0 1-.142-.536v-.001a.86.86 0 0 1 .214-.571c.119-.151.276-.263.454-.326a1.04 1.04 0 0 1 .614.002l-.007-.002c.255.087.491.227.695.411.168.146.317.315.443.503.116.174.203.367.257.571l-.312.171a2.052 2.052 0 0 0-.245-.545l.005.008a2.058 2.058 0 0 0-.363-.392l-.003-.003a1.19 1.19 0 0 0-.7-.348l-.006-.001a.558.558 0 0 0-.289.051l.003-.001a.595.595 0 0 0-.227.184l-.001.002a.508.508 0 0 0-.125.391v-.002a.967.967 0 0 0 .131.406c.077.131.186.303.334.509.146.194.278.401.394.617.09.163.141.349.147.537a.86.86 0 0 1-.214.571.976.976 0 0 1-.459.326.998.998 0 0 1-.607 0 2.025 2.025 0 0 1-.702-.413l.002.002a2.606 2.606 0 0 1-.54-.695l-.007-.014zm5.502.834-.771-1.143.285-.211 1.777 2.651-.284.211-.771-1.143-2.854 2.086-.23-.349 2.849-2.103zm-1.225 4.697c.097-.345.287-.655.547-.891.243-.229.546-.395.884-.472l.013-.002a1.906 1.906 0 0 1 1.041.044l-.013-.004c.322.111.61.309.837.571.229.275.392.611.463.981l.002.014a2.306 2.306 0 0 1-.003 1.118l.003-.016a2.009 2.009 0 0 1-1.453 1.38l-.014.003a1.944 1.944 0 0 1-1.046-.05l.014.004a1.838 1.838 0 0 1-.834-.568l-.002-.003a2.171 2.171 0 0 1-.463-.975l-.002-.014a2.306 2.306 0 0 1 .032-1.137l-.004.016zm.716 1.817c.183.217.419.377.683.463.273.083.56.093.838.029.292-.069.544-.207.75-.395l-.001.001c.202-.194.35-.44.431-.714a1.885 1.885 0 0 0 .019-.899l.002.013a1.868 1.868 0 0 0-.38-.798l.003.003a1.554 1.554 0 0 0-.694-.46l-.011-.003a1.552 1.552 0 0 0-.853.003l.011-.003a1.49 1.49 0 0 0-.744.395 1.6 1.6 0 0 0-.429.709l-.003.011a1.767 1.767 0 0 0 .002.898l-.003-.012c.06.283.19.546.377.76zm-1.132 4.818 1.416-.571c0-.103.033-.206.061-.314l.268-1.034-1.16-.314.104-.406 3.697 1.034-.371 1.446a1.828 1.828 0 0 1-.631 1.06l-.003.003a1.139 1.139 0 0 1-1.039.16 1.187 1.187 0 0 1-.669-.429l-.002-.003a1.27 1.27 0 0 1-.265-.774l-1.509.571.104-.429zm1.832.16c.064.121.151.228.255.314a.961.961 0 0 0 .608.218.937.937 0 0 0 .513-.152l-.004.002c.241-.203.406-.488.465-.806l.263-1.029-1.854-.52-.262 1.029a1.421 1.421 0 0 0 .019.953l-.003-.01zm-3.795 3.52-.279-.223 1.64-2.257 3.052 2.417-1.586 2.189-.279-.223 1.339-1.846-1.094-.863-1.198 1.651-.273-.217 1.225-1.651-1.132-.897-1.417 1.92zm-1.28 4.554-.782.046v-.274l.782-.006-.421-.68.214-.143.415.686.339-.766.235.131-.371.72.782-.046v.28h-.793l.421.68-.213.143-.416-.686-.361.743-.23-.137.399-.691zm-7.109-.457.662.383c.111-.223.266-.418.454-.574s.406-.268.64-.329c.217-.071.446-.096.672-.074.197.015.386.087.547.206a.893.893 0 0 1 .306.457c.066.226.054.469-.033.686a2.854 2.854 0 0 1-.547.794c.18.101.347.226.497.371a1 1 0 0 1 .225.394.788.788 0 0 1-.144.67l.001-.002a1.054 1.054 0 0 1-.605.438l-.007.002a.918.918 0 0 1-.684-.002l.006.002a.695.695 0 0 1-.25-.193l-.001-.001a.726.726 0 0 1-.142-.286l-.001-.005a.81.81 0 0 1 .039-.571c.132-.27.294-.502.487-.704l-.001.001-1.318-.766a2.87 2.87 0 0 0-.033.817h-.333a2.83 2.83 0 0 1 .115-1.014l-.005.02-.689-.4.142-.32zm.951.571 1.449.84c.19-.19.347-.411.465-.657a.756.756 0 0 0 0-.514.625.625 0 0 0-.14-.266l.001.001a.585.585 0 0 0-.239-.162l-.004-.001a1.054 1.054 0 0 0-.707.002l.007-.002a1.287 1.287 0 0 0-.506.273 1.374 1.374 0 0 0-.344.462l-.003.009.022.017zm2.057 2.286a.526.526 0 0 0 .043-.427l.001.004a.711.711 0 0 0-.175-.297 2.27 2.27 0 0 0-.454-.314 2.947 2.947 0 0 0-.432.571.58.58 0 0 0-.043.427l-.001-.004a.466.466 0 0 0 .238.301l.003.001a.586.586 0 0 0 .432 0 .657.657 0 0 0 .365-.266l.002-.002.022.006zm-9.675 1.548.077-4h.389l-.061 3.2 1.553-2.663h.191l1.455 2.709.054-3.183h.389l-.071 4h-.334L18.7 28.685l-1.701 2.931-.334-.006zm-1.903-4.182c.25.249.429.566.517.915s.081.717-.019 1.063c-.094.365-.275.68-.52.932a1.811 1.811 0 0 1-.868.5l-.012.003a2.003 2.003 0 0 1-1.075-.039l.014.004a2.04 2.04 0 0 1-.919-.52 1.942 1.942 0 0 1-.506-.889l-.003-.013a2.213 2.213 0 0 1 .021-1.097l-.004.015c.1-.364.284-.678.53-.93.23-.241.522-.42.851-.511l.013-.003a2.014 2.014 0 0 1 1.069.038l-.014-.004c.364.099.676.286.924.537zm-1.865-.2c-.28.07-.52.215-.705.411l-.001.001a1.667 1.667 0 0 0-.413.748l-.002.012a1.704 1.704 0 0 0 0 .874c.065.278.203.531.399.731.206.21.46.362.738.44.278.074.569.074.847 0 .267-.069.513-.211.711-.411.2-.21.344-.473.415-.76a1.697 1.697 0 0 0-.003-.892l.003.012a1.632 1.632 0 0 0-.405-.732l.001.001a1.626 1.626 0 0 0-.732-.432l-.011-.003a1.54 1.54 0 0 0-.853.002l.011-.003zm-4.14-2.658.147 1.571c.094.042.185.09.274.143l.891.537.602-1.109.355.211-1.914 3.446-1.247-.749a1.8 1.8 0 0 1-.816-.902l-.004-.012a1.302 1.302 0 0 1 .124-1.092l-.003.006c.127-.25.329-.451.574-.571.249-.108.526-.13.787-.063l-.158-1.68.389.263zm-.623 1.806a.954.954 0 0 0-.357.179l.002-.002a1.062 1.062 0 0 0-.35 1.117l-.002-.008c.129.296.351.536.629.68l.88.531.958-1.714-.881-.531a1.3 1.3 0 0 0-.883-.28h.003v.029zm-2.614-4.486.246-.257 1.887 2.029-2.734 2.789-1.821-1.966.251-.257 1.548 1.663.935-.989-1.356-1.474.262-.263 1.383 1.486 1.017-1.034-1.618-1.726zm-4.064-2.245.131-.789.257.04-.147.811.727-.28.087.251-.738.263.607.537-.175.206-.585-.571-.137.811-.262-.051.153-.811-.733.274-.082-.223.733-.269-.608-.531.181-.206.591.537z"/></symbol><symbol id="icon-mail-1" viewBox="0 0 32 32"><path fill="none" stroke="#9da4bd" stroke-linecap="round" stroke-linejoin="round" stroke-width="1.333" d="M6.4 6.667h19.2C26.92 6.667 28 7.716 28 9v14c0 1.283-1.08 2.333-2.4 2.333H6.4C5.08 25.333 4 24.282 4 23V9c0-1.284 1.08-2.333 2.4-2.333z" style="stroke:var(--color1,#9da4bd)"/><path fill="none" stroke="#9da4bd" stroke-linecap="round" stroke-linejoin="round" stroke-width="1.333" d="m26.667 9.333-10.667 8-10.667-8" style="stroke:var(--color1,#9da4bd)"/></symbol><symbol id="icon-map-pin" viewBox="0 0 32 32"><path fill="none" stroke="#9da4bd" stroke-linecap="round" stroke-linejoin="round" stroke-width="1.333" d="M26.667 13.819C26.667 21.454 16 28 16 28S5.333 21.453 5.333 13.819C5.333 8.396 10.109 4 16 4s10.667 4.396 10.667 9.819v0z" style="stroke:var(--color1,#9da4bd)"/><path fill="none" stroke="#9da4bd" stroke-linecap="round" stroke-linejoin="round" stroke-width="1.333" d="M16 18.667a4 4 0 0 0 0-8v0a4 4 0 0 0 0 8v0z" style="stroke:var(--color1,#9da4bd)"/></symbol><symbol id="icon-Shape" viewBox="0 0 32 32"><path fill="none" stroke="#9da4bd" stroke-linecap="round" stroke-linejoin="round" stroke-width="1.778" d="M30.222 23.116v4.303a2.86 2.86 0 0 1-3.129 2.848l.011.001c-4.642-.517-8.834-2.084-12.45-4.457l.107.066c-3.478-2.233-6.349-5.104-8.515-8.471l-.067-.111C3.864 13.77 2.296 9.557 1.799 5.021l-.011-.126a2.86 2.86 0 0 1 2.848-3.118h4.318a2.862 2.862 0 0 1 2.831 2.445l.002.015c.181 1.372.516 2.72 1.001 4.018a2.861 2.861 0 0 1-.644 3.019l-1.817 1.815c2.073 3.6 4.981 6.509 8.471 8.523l.111.059 1.817-1.815a2.85 2.85 0 0 1 2.011-.826c.361 0 .707.067 1.025.189l-.02-.007c1.298.484 2.647.818 4.018 1.001a2.864 2.864 0 0 1 2.463 2.833l-.001.074v-.004z" style="stroke:var(--color1,#9da4bd)"/></symbol><symbol id="icon-arrow-right" viewBox="0 0 32 32"><path d="m19.414 27.414 10-10a2 2 0 0 0 0-2.828l-10-10a2 2 0 1 0-2.828 2.828L23.172 14H4a2 2 0 1 0 0 4h19.172l-6.586 6.586c-.39.39-.586.902-.586 1.414s.195 1.024.586 1.414a2 2 0 0 0 2.828 0z"/></symbol><symbol id="icon-arrow-left" viewBox="0 0 32 32"><path d="m12.586 27.414-10-10a2 2 0 0 1 0-2.828l10-10a2 2 0 1 1 2.828 2.828L8.828 14H28a2 2 0 1 1 0 4H8.828l6.586 6.586c.39.39.586.902.586 1.414s-.195 1.024-.586 1.414a2 2 0 0 1-2.828 0z"/></symbol><symbol id="icon-facebook" viewBox="0 0 32 32"><path d="M19 6h5V0h-5c-3.86 0-7 3.14-7 7v3H8v6h4v16h6V16h5l1-6h-6V7c0-.542.458-1 1-1z"/></symbol><symbol id="icon-instagram" viewBox="0 0 32 32"><path d="M16 2.881c4.275 0 4.781.019 6.462.094 1.563.069 2.406.331 2.969.55a4.952 4.952 0 0 1 1.837 1.194 5.015 5.015 0 0 1 1.2 1.838c.219.563.481 1.412.55 2.969.075 1.688.094 2.194.094 6.463s-.019 4.781-.094 6.463c-.069 1.563-.331 2.406-.55 2.969a4.94 4.94 0 0 1-1.194 1.837 5.02 5.02 0 0 1-1.837 1.2c-.563.219-1.413.481-2.969.55-1.688.075-2.194.094-6.463.094s-4.781-.019-6.463-.094c-1.563-.069-2.406-.331-2.969-.55a4.952 4.952 0 0 1-1.838-1.194 5.02 5.02 0 0 1-1.2-1.837c-.219-.563-.481-1.413-.55-2.969-.075-1.688-.094-2.194-.094-6.463s.019-4.781.094-6.463c.069-1.563.331-2.406.55-2.969a4.964 4.964 0 0 1 1.194-1.838 5.015 5.015 0 0 1 1.838-1.2c.563-.219 1.412-.481 2.969-.55 1.681-.075 2.188-.094 6.463-.094zM16 0c-4.344 0-4.887.019-6.594.094-1.7.075-2.869.35-3.881.744-1.056.412-1.95.956-2.837 1.85a7.833 7.833 0 0 0-1.85 2.831C.444 6.538.169 7.7.094 9.4.019 11.113 0 11.656 0 16s.019 4.887.094 6.594c.075 1.7.35 2.869.744 3.881.413 1.056.956 1.95 1.85 2.837a7.82 7.82 0 0 0 2.831 1.844c1.019.394 2.181.669 3.881.744 1.706.075 2.25.094 6.594.094s4.888-.019 6.594-.094c1.7-.075 2.869-.35 3.881-.744 1.05-.406 1.944-.956 2.831-1.844s1.438-1.781 1.844-2.831c.394-1.019.669-2.181.744-3.881.075-1.706.094-2.25.094-6.594s-.019-4.887-.094-6.594c-.075-1.7-.35-2.869-.744-3.881a7.506 7.506 0 0 0-1.831-2.844A7.82 7.82 0 0 0 26.482.843C25.463.449 24.301.174 22.601.099c-1.712-.081-2.256-.1-6.6-.1z"/><path d="M16 7.781c-4.537 0-8.219 3.681-8.219 8.219s3.681 8.219 8.219 8.219 8.219-3.681 8.219-8.219A8.221 8.221 0 0 0 16 7.781zm0 13.55a5.331 5.331 0 1 1 0-10.663 5.331 5.331 0 0 1 0 10.663zM26.462 7.456a1.919 1.919 0 1 1-3.838 0 1.919 1.919 0 0 1 3.838 0z"/></symbol><symbol id="icon-twitter" viewBox="0 0 32 32"><path d="M32 7.075a12.941 12.941 0 0 1-3.769 1.031 6.601 6.601 0 0 0 2.887-3.631 13.21 13.21 0 0 1-4.169 1.594A6.565 6.565 0 0 0 22.155 4a6.563 6.563 0 0 0-6.563 6.563c0 .512.056 1.012.169 1.494A18.635 18.635 0 0 1 2.23 5.195a6.56 6.56 0 0 0-.887 3.3 6.557 6.557 0 0 0 2.919 5.463 6.565 6.565 0 0 1-2.975-.819v.081a6.565 6.565 0 0 0 5.269 6.437 6.574 6.574 0 0 1-2.968.112 6.588 6.588 0 0 0 6.131 4.563 13.17 13.17 0 0 1-9.725 2.719 18.568 18.568 0 0 0 10.069 2.95c12.075 0 18.681-10.006 18.681-18.681 0-.287-.006-.569-.019-.85A13.216 13.216 0 0 0 32 7.076z"/></symbol><symbol id="icon-linkedin" viewBox="0 0 32 32"><path d="M12 12h5.535v2.837h.079c.77-1.381 2.655-2.837 5.464-2.837C28.92 12 30 15.637 30 20.367V30h-5.769v-8.54c0-2.037-.042-4.657-3.001-4.657-3.005 0-3.463 2.218-3.463 4.509V30H12V12zM2 12h6v18H2V12zm6-5a3 3 0 1 1-6 0 3 3 0 0 1 6 0z"/></symbol><symbol id="icon-menu" viewBox="0 0 32 32"><path d="M6.4 11.734V9.6h19.2v2.134H6.4zm0 5.332h19.2v-2.133H6.4v2.133zm0 5.334h19.2v-2.134H6.4V22.4z"/><symbol id="icon-arrow-up" viewBox="0 0 32 32"><path d="m27.414 12.586-10-10a2 2 0 0 0-2.828 0l-10 10a2 2 0 1 0 2.828 2.828L14 8.828V28a2 2 0 1 0 4 0V8.828l6.586 6.586c.39.39.902.586 1.414.586s1.024-.195 1.414-.586a2 2 0 0 0 0-2.828z"/></symbol></symbol></defs></svg>